# AST/ASF file generated using VICON BodyLanguage
# -----------------------------------------------
:version 1.10
:name VICON
:units
  mass 1.0
  length 0.45
  angle deg
:documentation
   .ast/.asf automatically generated from VICON data using
   VICON BodyBuilder and BodyLanguage model FoxedUp or BRILLIANT.MOD
:root
   order TX TY TZ RX RY RZ
   axis XYZ
   position 0 0 0  
   orientation 0 0 0 
:bonedata
  begin
     id 1 
     name lhipjoint
     direction 0.612567 -0.751349 0.245431 
     length 2.42285 
     axis 0 0 0  XYZ
  end
  begin
     id 2 
     name lfemur
     direction 0.34202 -0.939693 0  
     length 7.11304  
     axis 0 0 20  XYZ
    dof rx ry rz
    limits (-160.0 20.0)
           (-70.0 70.0)
           (-60.0 70.0)
  end
  begin
     id 3 
     name ltibia
     direction 0.34202 -0.939693 0   
     length 7.84529   
     axis 0 0 20   XYZ
    dof rx
    limits (-10.0 170.0)
  end
  begin
     id 4 
     name lfoot
     direction 0.0779239 -0.214094 0.9737   
     length 1.97176   
     axis -90 7.62852e-016 20   XYZ
    dof rx rz
    limits (-45.0 90.0)
           (-70.0 20.0)
  end
  begin
     id 5 
     name ltoes
     direction 1.53565e-011 -4.21709e-011 1   
     length 0.993197   
     axis -90 7.62852e-016 20   XYZ
    dof rx
    limits (-90.0 20.0)
  end
  begin
     id 6 
     name rhipjoint
     direction -0.665722 -0.709315 0.231701   
     length 2.56642  
     axis 0 0 0  XYZ 
  end
  begin
     id 7 
     name rfemur
     direction -0.34202 -0.939693 0   
     length 7.32108   
     axis 0 0 -20   XYZ
    dof rx ry rz
    limits (-160.0 20.0)
           (-70.0 70.0)
           (-70.0 60.0)
  end
  begin
     id 8 
     name rtibia
     direction -0.34202 -0.939693 0   
     length 7.81254   
     axis 0 0 -20   XYZ
    dof rx
    limits (-10.0 170.0)
 end
 begin
     id 9 
     name rfoot
     direction -0.0832806 -0.228812 0.969902   
     length 2.08278  
     axis -90 -7.62852e-016 -20   XYZ
    dof rx rz
    limits (-45.0 90.0)
           (-20.0 70.0)
  end
  begin
     id 10 
     name rtoes
     direction -1.53589e-011 -4.22086e-011 1   
     length 1.04609   
     axis -90 -7.62852e-016 -20   XYZ
    dof rx
    limits (-90.0 20.0)
  end
  begin
     id 11 
     name lowerback
     direction -0.00506013 0.988403 -0.151766   
     length 2.01978   
     axis 0 0 0   XYZ
    dof rx ry rz
    limits (-20.0 45.0)
           (-30.0 30.0)
           (-30.0 30.0)
  end
  begin
     id 12 
     name upperback
     direction -0.00836389 0.99968 0.0238859   
     length 2.01276   
     axis 0 0 0   XYZ
    dof rx ry rz
    limits (-20.0 45.0)
           (-30.0 30.0)
           (-30.0 30.0)
  end
  begin
     id 13 
     name thorax
     direction -0.00684136 0.995386 0.0957043   
     length 2.07303   
     axis 0 0 0   XYZ
    dof rx ry rz
    limits (-20.0 45.0)
           (-30.0 30.0)
           (-30.0 30.0)
  end
  begin
     id 14 
     name lowerneck
     direction -0.0161045 0.999661 0.0204485   
     length 1.91243   
     axis 0 0 0   XYZ
    dof rx ry rz
    limits (-20.0 45.0)
           (-30.0 30.0)
           (-30.0 30.0)
  end
  begin
     id 15 
     name upperneck
     direction 0.0553583 0.990946 -0.122319   
     length 1.91574   
     axis 0 0 0   XYZ
    dof rx ry rz
    limits (-20.0 45.0)
           (-30.0 30.0)
           (-30.0 30.0)
  end
  begin
     id 16
     name head
     direction 0.0180273 0.998839 -0.0446756  
     length 1.92693  
     axis 0 0 0   XYZ
    dof rx ry rz
    limits (-20.0 45.0)
           (-30.0 30.0)
           (-30.0 30.0)
  end
  begin
     id 17 
     name lclavicle
     direction 0.945646 0.319323 -0.0615358  
     length 4.0076  
     axis 0 0 0   XYZ
    dof ry rz
    limits (-20.0 10.0)
           (0.0 20.0)
  end
  begin
     id 18 
     name lhumerus
     direction 1 -4.48967e-011 -2.79996e-027   
     length 5.64147   
     axis 180 -30 -90   XYZ
    dof rx ry rz
    limits (-60.0 90.0)
           (-90.0 90.0)
           (-90.0 90.0)
  end
  begin
     id 19
     name lradius
     direction 1 -4.48976e-011 -9.5122e-027   
     length 2.86444   
     axis 180 -30 -90   XYZ
    dof rx
    limits (-10.0 170.0)
  end
  begin
     id 20
     name lwrist
     direction 1 -4.48983e-011 -1.24047e-026   
     length 1.43222   
     axis 9.05591e-015 90 90   XYZ
    dof ry
    limits (-180.0 0.0)
 end
  begin
     id 21 
     name lhand
     direction 1 -4.4892e-011 -2.48094e-026   
     length 0.722123   
     axis 1.58305e-014 90 90   XYZ
    dof rx rz
    limits (-90.0 90.0)
           (-45.0 45.0)
  end
  begin
     id 22 
     name lfingers
     direction 1 -4.48895e-011 -4.96187e-026   
     length 0.582194   
     axis 3.1661e-014 90 90   XYZ
    dof rx
    limits (0.0 90.0)
  end
  begin
     id 23
     name lthumb
     direction 0.707107 -6.34961e-011 0.707107   
     length 0.835918   
     axis -90 45 2.85299e-015   XYZ
    dof rx rz
    limits (-45.0 45.0)
           (-45.0 45.0)
  end
  begin
     id 24 
     name rclavicle
     direction -0.932635 0.324218 -0.15835   
     length 3.65819  
     axis 0 0 0   XYZ 
    dof ry rz
    limits (-10.0 20.0)
           (-20.0 0.0)
  end
  begin
     id 25 
     name rhumerus
     direction -1 -4.48965e-011 -4.02296e-027  
     length 5.44729   
     axis 180 30 90   XYZ
    dof rx ry rz
    limits (-90.0 60.0)
           (-90.0 90.0)
           (-90.0 90.0)
  end
  begin
     id 26 
     name rradius
     direction -1 -4.48957e-011 -8.81087e-027   
     length 3.08821   
     axis 180 30 90   XYZ
    dof rx
    limits (-10.0 170.0)
  end
  begin
     id 27 
     name rwrist
     direction -1 -4.49015e-011 -1.24047e-026   
     length 1.5441   
     axis 9.05591e-015 -90 -90   XYZ
    dof ry
    limits (-180.0 0.0)
  end
  begin
     id 28
     name rhand
     direction -1 -4.4891e-011 -2.48094e-026   
     length 0.821049   
     axis 1.58305e-014 -90 -90   XYZ
    dof rx rz
    limits (-90.0 90.0)
           (-45.0 45.0)
  end
  begin
     id 29
     name rfingers
     direction -1 -4.48985e-011 -4.96187e-026   
     length 0.661951   
     axis 3.1661e-014 -90 -90   XYZ
    dof rx
    limits (0.0 90.0)
  end
  begin
     id 30
     name rthumb
     direction -0.707107 -6.34906e-011 0.707107   
     length 0.950433   
     axis -90 -45 -2.85299e-015   XYZ
    dof rx rz
    limits (-45.0 45.0)
           (-45.0 45.0)
  end
:hierarchy
  begin
    root lhipjoint rhipjoint lowerback
    lhipjoint lfemur
    lfemur ltibia
    ltibia lfoot
    lfoot ltoes
    rhipjoint rfemur
    rfemur rtibia
    rtibia rfoot
    rfoot rtoes
    lowerback upperback
    upperback thorax
    thorax lowerneck lclavicle rclavicle
    lowerneck upperneck
    upperneck head
    lclavicle lhumerus
    lhumerus lradius
    lradius lwrist
    lwrist lhand lthumb
    lhand lfingers
    rclavicle rhumerus
    rhumerus rradius
    rradius rwrist
    rwrist rhand rthumb
    rhand rfingers
  end

#!OML:ASF F:\VICON\USERDATA\INSTALL\rory3\rory3.ASF
:FULLY-SPECIFIED
:DEGREES
114
root 2.50166 17.7129 0.323869 -168.791 62.4486 -172.834
lowerback 12.7886 0.0882346 0.1769
upperback -1.00139 -0.031437 -2.76064
thorax -8.26977 -0.0705859 -3.0444
lowerneck 8.57176 1.11027 -4.56644
upperneck -5.86402 1.72816 8.97463
head -3.26306 0.600121 3.38417
rclavicle 1.19867e-013 2.54444e-014
rhumerus -40.2044 4.71378 -83.1724
rradius 34.7177
rwrist 20.1251
rhand -3.56474 8.00896
rfingers 7.12502
rthumb 22.1719 -20.7395
lclavicle 1.19867e-013 2.54444e-014
lhumerus 65.06 11.2153 45.1367
lradius 104.879
lwrist 77.2877
lhand 17.248 26.3196
lfingers 7.12502
lthumb 41.9633 50.9219
rfemur 0.893587 -13.4231 23.9339
rtibia 6.54871
rfoot -19.7466 -12.1181
rtoes 1.84932
lfemur -16.3707 -6.80278 -12.5861
ltibia 18.4596
lfoot -2.24998 -16.9243
ltoes 12.203
115
root 2.50234 17.7201 0.322184 -168.708 62.5015 -172.755
lowerback 12.7922 0.0919963 0.20908
upperback -1.01706 -0.0217676 -2.75089
thorax -8.28824 -0.0677227 -3.05446
lowerneck 8.57653 1.12163 -4.58041
upperneck -5.82781 1.74139 8.9976
head -3.25428 0.606595 3.39265
rclavicle 6.77856e-014 -1.90833e-014
rhumerus -40.1934 4.74218 -83.2107
rradius 34.6668
rwrist 19.9312
rhand -3.66363 7.96893
rfingers 7.12502
rthumb 22.0769 -20.7908
lclavicle 6.77856e-014 -1.90833e-014
lhumerus 65.0178 11.1806 45.1399
lradius 104.836
lwrist 77.2399
lhand 17.2863 26.304
lfingers 7.12502
lthumb 41.9992 50.8943
rfemur 0.830296 -13.3631 23.9556
rtibia 6.60492
rfoot -19.7325 -12.1832
rtoes 2.37601
lfemur -16.3429 -6.76722 -12.5517
ltibia 18.4229
lfoot -2.23211 -16.9025
ltoes 12.5383
116
root 2.50325 17.7206 0.320586 -168.7 62.5197 -172.756
lowerback 12.7919 0.077909 0.201021
upperback -1.02795 -0.04129 -2.73431
thorax -8.30084 -0.0768619 -3.02839
lowerneck 8.52849 1.13943 -4.60173
upperneck -5.75433 1.75868 8.9962
head -3.22567 0.617859 3.3945
rclavicle 4.69132e-014 6.67916e-014
rhumerus -40.1732 4.80316 -83.242
rradius 34.6049
rwrist 19.763
rhand -3.81237 7.9814
rfingers 7.12502
rthumb 21.9341 -20.7952
lclavicle 4.69132e-014 6.67916e-014
lhumerus 64.9891 11.1931 45.1628
lradius 104.792
lwrist 77.1706
lhand 17.4139 26.3196
lfingers 7.12502
lthumb 42.1188 50.8697
rfemur 0.797214 -13.3446 23.9551
rtibia 6.64531
rfoot -19.7998 -12.1557
rtoes 2.52375
lfemur -16.3392 -6.72027 -12.559
ltibia 18.4063
lfoot -2.18033 -16.9095
ltoes 12.8708
117
root 2.50546 17.7146 0.316417 -168.744 62.5163 -172.819
lowerback 12.7459 0.04829 0.208394
upperback -1.01007 -0.0785493 -2.73462
thorax -8.25724 -0.0946255 -3.02454
lowerneck 8.56438 1.15816 -4.57342
upperneck -5.86031 1.78679 8.92739
head -3.26437 0.631121 3.36754
rclavicle 3.20043e-014 4.77083e-015
rhumerus -40.1313 4.83876 -83.2648
rradius 34.5934
rwrist 19.6958
rhand -3.86789 7.96293
rfingers 7.12502
rthumb 21.8808 -20.8199
lclavicle 3.20043e-014 4.77083e-015
lhumerus 64.9547 11.2828 45.1629
lradius 104.822
lwrist 77.2331
lhand 17.4479 26.6247
lfingers 7.12502
lthumb 42.1506 51.1641
rfemur 0.869617 -13.3532 23.918
rtibia 6.56069
rfoot -19.8278 -12.0998
rtoes 2.01628
lfemur -16.3684 -6.70585 -12.6098
ltibia 18.4562
lfoot -2.30754 -16.9532
ltoes 12.2439
118
root 2.50726 17.7103 0.312868 -168.918 62.5384 -172.968
lowerback 12.7734 0.0394927 0.1548
upperback -1.00208 -0.0987499 -2.74371
thorax -8.26536 -0.101937 -3.00017
lowerneck 8.69913 1.16719 -4.49512
upperneck -6.01006 1.8054 8.82685
head -3.33117 0.636927 3.32318
rclavicle -1.64991e-014 -1.11319e-014
rhumerus -40.1448 4.8719 -83.2766
rradius 34.6111
rwrist 19.706
rhand -3.8513 8.03223
rfingers 7.12502
rthumb 21.8967 -20.7487
lclavicle -1.64991e-014 -1.11319e-014
lhumerus 64.8677 11.3201 45.1119
lradius 104.832
lwrist 77.2652
lhand 17.5019 26.813
lfingers 7.12502
lthumb 42.2012 51.3353
rfemur 1.01134 -13.3481 23.8134
rtibia 6.44417
rfoot -19.8191 -12.0424
rtoes 2.0302
lfemur -16.3608 -6.7425 -12.705
ltibia 18.5588
lfoot -2.38968 -16.9705
ltoes 11.9272
119
root 2.50871 17.7089 0.309765 -168.847 62.5441 -172.883
lowerback 12.7821 0.0382494 0.211462
upperback -1.01869 -0.0919455 -2.73008
thorax -8.28796 -0.101596 -3.01947
lowerneck 8.78813 1.16514 -4.42099
upperneck -6.07609 1.80581 8.74223
head -3.36424 0.635657 3.28508
rclavicle -2.38542e-015 -1.27222e-014
rhumerus -40.1865 4.90034 -83.3108
rradius 34.6341
rwrist 19.682
rhand -3.88533 8.02735
rfingers 7.12502
rthumb 21.8641 -20.7574
lclavicle -2.38542e-015 -1.27222e-014
lhumerus 64.801 11.3013 45.0509
lradius 104.852
lwrist 77.2905
lhand 17.518 26.8676
lfingers 7.12502
lthumb 42.2163 51.3847
rfemur 1.04746 -13.3354 23.8453
rtibia 6.40627
rfoot -19.7718 -12.0909
rtoes 1.71032
lfemur -16.3768 -6.80436 -12.6573
ltibia 18.64
lfoot -2.42386 -16.949
ltoes 12.0349
120
root 2.51035 17.7087 0.307294 -168.843 62.5773 -172.891
lowerback 12.7829 0.0322207 0.223891
upperback -1.03695 -0.0991403 -2.73461
thorax -8.30865 -0.106231 -3.03032
lowerneck 8.79413 1.16693 -4.43141
upperneck -6.06553 1.80626 8.74583
head -3.36222 0.635935 3.28783
rclavicle -2.38542e-015 6.36111e-015
rhumerus -40.179 4.85563 -83.3096
rradius 34.6213
rwrist 19.8072
rhand -3.88196 8.03064
rfingers 7.12502
rthumb 21.8673 -20.7537
lclavicle -2.38542e-015 6.36111e-015
lhumerus 64.7661 11.3004 45.0216
lradius 104.864
lwrist 77.3704
lhand 17.4894 26.9157
lfingers 7.12502
lthumb 42.1895 51.442
rfemur 0.98234 -13.3026 23.8303
rtibia 6.48437
rfoot -19.7566 -12.1752
rtoes 1.16605
lfemur -16.3668 -6.79109 -12.653
ltibia 18.6471
lfoot -2.30082 -16.9383
ltoes 12.8659
121
root 2.51332 17.7104 0.305861 -169.021 62.6216 -173.069
lowerback 12.7986 0.0454005 0.139616
upperback -1.04154 -0.0957721 -2.7567
thorax -8.32231 -0.101083 -3.00717
lowerneck 8.77527 1.16111 -4.44283
upperneck -6.0271 1.7968 8.76534
head -3.34721 0.631779 3.2961
rclavicle -2.48481e-014 -1.43125e-014
rhumerus -40.1763 4.77263 -83.2928
rradius 34.5833
rwrist 19.9544
rhand -3.85633 8.12029
rfingers 7.12502
rthumb 21.8919 -20.6612
lclavicle -2.48481e-014 -1.43125e-014
lhumerus 64.7683 11.2606 45.0459
lradius 104.878
lwrist 77.3703
lhand 17.5179 26.97
lfingers 7.12502
lthumb 42.2162 51.4872
rfemur 0.962015 -13.276 23.7299
rtibia 6.5777
rfoot -19.7944 -12.1542
rtoes 1.13537
lfemur -16.3214 -6.72344 -12.7562
ltibia 18.6395
lfoot -2.2578 -16.9592
ltoes 13.3144
122
root 2.51536 17.7097 0.304209 -169.145 62.6388 -173.161
lowerback 12.817 0.0398972 0.0717649
upperback -1.02243 -0.112439 -2.75178
thorax -8.31284 -0.105455 -2.95997
lowerneck 8.76249 1.1701 -4.43652
upperneck -6.03248 1.81035 8.76384
head -3.34758 0.638663 3.29386
rclavicle 2.90226e-014 -9.54166e-015
rhumerus -40.1335 4.76817 -83.2857
rradius 34.5488
rwrist 20.1213
rhand -3.72489 8.12098
rfingers 7.12502
rthumb 22.0181 -20.6457
lclavicle 2.90226e-014 -9.54166e-015
lhumerus 64.7091 11.2937 44.9861
lradius 104.923
lwrist 77.3105
lhand 17.4635 26.9279
lfingers 7.12502
lthumb 42.1653 51.4624
rfemur 0.975616 -13.2698 23.6767
rtibia 6.66599
rfoot -19.8847 -12.0793
rtoes 1.40855
lfemur -16.2682 -6.78151 -12.8111
ltibia 18.6398
lfoot -2.35407 -16.928
ltoes 13.3488
123
root 2.51732 17.7087 0.301283 -169.132 62.6495 -173.14
lowerback 12.7728 0.0245843 0.0553359
upperback -0.988634 -0.131699 -2.72064
thorax -8.25172 -0.112573 -2.91213
lowerneck 8.71678 1.18634 -4.47652
upperneck -6.07169 1.83232 8.77928
head -3.35377 0.650202 3.30421
rclavicle 3.00165e-014 1.90833e-014
rhumerus -40.0527 4.8585 -83.3012
rradius 34.5152
rwrist 20.1616
rhand -3.69889 8.12147
rfingers 7.12502
rthumb 22.0431 -20.6423
lclavicle 3.00165e-014 1.90833e-014
lhumerus 64.6547 11.4152 44.9654
lradius 104.947
lwrist 77.3124
lhand 17.4793 26.904
lfingers 7.12502
lthumb 42.18 51.4335
rfemur 0.94863 -13.2576 23.6755
rtibia 6.75651
rfoot -19.9244 -12.0363
rtoes 1.81146
lfemur -16.2465 -6.80578 -12.8225
ltibia 18.6199
lfoot -2.49769 -16.8813
ltoes 12.5293
